<?xml version="1.0" encoding="utf-8"?>
<!-- Generator: Adobe Illustrator 25.0.1, SVG Export Plug-In . SVG Version: 6.00 Build 0)  -->
<svg version="1.1" id="Layer_2_1_" xmlns="http://www.w3.org/2000/svg" xmlns:xlink="http://www.w3.org/1999/xlink" x="0px" y="0px"
	 viewBox="0 0 540 140" style="enable-background:new 0 0 540 140;" xml:space="preserve">
<g>
	<path d="M198.2,16.4v105.4H180v-8.1c-5.1,6.3-12.5,9.9-21.4,9.9c-17.9,0-32.7-15.3-32.7-34.9c0-19.5,14.8-34.8,32.7-34.8
		c8,0,14.8,2.9,19.8,8.1V16.4H198.2z M178.8,88.6c0-10-7.7-17.9-17.6-17.9c-10,0-17.6,7.9-17.6,17.9c0,10.2,7.6,18,17.6,18
		C171.1,106.7,178.8,98.8,178.8,88.6z"/>
	<path d="M279.8,16.4v105.4h-18.2v-8.1c-5.1,6.3-12.5,9.9-21.4,9.9c-17.9,0-32.7-15.3-32.7-34.9c0-19.5,14.8-34.8,32.7-34.8
		c8,0,14.8,2.9,19.8,8.1V16.4H279.8z M260.4,88.6c0-10-7.7-17.9-17.6-17.9c-10,0-17.6,7.9-17.6,17.9c0,10.2,7.6,18,17.6,18
		C252.7,106.7,260.4,98.8,260.4,88.6z"/>
	<path d="M356.2,56.8V122h-19.4v-6.8c-4.8,5.4-11.6,8.4-19.8,8.4c-15.6,0-24.4-10.6-24.4-27.4V56.8h19.8v37c0,8,4.7,12.7,11.5,12.7
		c7.3,0,12.4-5.2,12.4-13.4V56.8H356.2z"/>
	<path d="M370.2,16.4h19.9v105.4h-19.9V16.4z"/>
	<path d="M472.3,56.8v65h-18.2v-8.4c-4.9,6.3-12.2,10.2-21.4,10.2c-18.2,0-33-15.3-33-34.8c0-19.6,14.8-34.8,32.9-34.8
		c8.7,0,15.7,3.5,20.7,9.2v-6.4H472.3z M452.5,88.6c0-10.2-7.7-18-17.6-18s-17.5,7.9-17.5,18c0,10.2,7.6,18,17.5,18
		C444.8,106.7,452.5,98.8,452.5,88.6z"/>
	<path d="M525.9,54.3v17.8c-13,0-20.1,6-20.1,19.4v30.4H486v-65h18.6v8.7C508.6,58.1,515.4,54.3,525.9,54.3z"/>
	<path d="M119.1,53.8c-8.9-14.3-20.9-26.4-35.2-35.2c-1.5-1-3.3-1.5-5.1-1.4C62,17.7,45.6,22.1,30.7,30c-1.6,0.8-2.9,2.1-3.7,3.7
		C19.1,48.5,14.6,65,14.1,81.8c-0.1,1.8,0.4,3.6,1.3,5.1c4.4,7.1,9.7,13.8,15.6,19.7s12.5,11.1,19.6,15.6c1.6,1,3.4,1.5,5.2,1.4
		c16.8-0.6,33.2-5,48-12.9c1.6-0.8,2.9-2.1,3.7-3.7c7.9-14.8,12.4-31.3,12.9-48.1C120.5,57.1,120.1,55.3,119.1,53.8z M88.3,91.4
		c-11.6,11.6-30.5,11.6-42.1,0s-11.6-30.5,0-42.1s30.5-11.6,42.1,0S99.9,79.8,88.3,91.4z"/>
</g>
</svg>
